<svg width="40" height="27" viewBox="0 0 40 27" fill="none" xmlns="http://www.w3.org/2000/svg">
<rect x="2" width="38" height="22" rx="11" fill="#443FE3" fill-opacity="0.27"/>
<path d="M32.104 12.632H29.32V15.48H26.728V12.632H23.944V10.184H26.728V7.32H29.32V10.184H32.104V12.632Z" fill="#443FE3"/>
<path d="M10.4575 0C7.68504 0.00328207 5.02702 1.1099 3.06656 3.07711C1.1061 5.04432 0.00328193 7.71149 1.11258e-05 10.4935C-0.00330951 12.767 0.736774 14.9789 2.10673 16.7897C2.10673 16.7897 2.39193 17.1665 2.43852 17.2209L10.4575 26.7108L18.4804 17.2161C18.5222 17.1655 18.8084 16.7897 18.8084 16.7897L18.8093 16.7868C20.1786 14.9768 20.9183 12.766 20.9151 10.4935C20.9118 7.71149 19.809 5.04432 17.8485 3.07711C15.8881 1.1099 13.2301 0.00328207 10.4575 0ZM10.4575 14.3094C9.70544 14.3094 8.97022 14.0856 8.34486 13.6663C7.7195 13.247 7.23209 12.6511 6.94427 11.9538C6.65645 11.2565 6.58115 10.4893 6.72788 9.74911C6.87461 9.00891 7.23678 8.329 7.7686 7.79534C8.30043 7.26169 8.97801 6.89826 9.71567 6.75103C10.4533 6.6038 11.2179 6.67936 11.9128 6.96817C12.6077 7.25698 13.2016 7.74607 13.6194 8.37358C14.0373 9.00109 14.2603 9.73884 14.2603 10.4935C14.259 11.5052 13.858 12.475 13.1451 13.1904C12.4322 13.9057 11.4657 14.3081 10.4575 14.3094Z" fill="#443FE3"/>
</svg>
